<svg width="500" height="500" viewBox="0 0 500 500" fill="none" xmlns="http://www.w3.org/2000/svg">
<rect width="500" height="500" fill="white"/>
<path fill-rule="evenodd" clip-rule="evenodd" d="M168.09 399.682C211.413 311.843 284.194 280.364 331.513 263.884C351.245 264.774 353.153 265.047 370.172 271C322.513 281.347 233.025 358.315 242.664 420.358C215.716 419.266 190.385 411.9 168.09 399.682Z" fill="#1CB2B1"/>
<path fill-rule="evenodd" clip-rule="evenodd" d="M399.735 330.452C373.293 379.978 323.052 414.878 264.283 419.881C263.811 418.47 263.379 417.038 262.989 415.583C251.768 373.706 279.647 329.851 325.259 317.629C352.402 310.356 379.708 315.925 399.735 330.452Z" fill="#7DB540"/>
<path d="M373.172 273.247C379.172 275.5 400.779 288.267 411.172 301.862C409.672 309 408.172 311.5 405.672 318C366.672 303 335.672 309 318.172 312.5C323.672 288 351.172 272 373.172 273.247Z" fill="#F1EAC1"/>
<path fill-rule="evenodd" clip-rule="evenodd" d="M413.453 296.221C411.907 301.773 410.085 307.21 408.005 312.517C389.501 303.991 363.891 301.565 338.712 307.451C337.512 307.732 336.326 308.028 335.155 308.34C334.837 307.014 334.672 305.661 334.672 304.285C334.672 289.816 352.889 277.805 376.79 275.5C391.494 280.92 403.969 288.064 413.453 296.221Z" fill="#7DB540"/>
<path fill-rule="evenodd" clip-rule="evenodd" d="M149.87 388.136C138.788 380.087 128.716 370.732 119.88 360.297C159.274 291.816 228.488 261.109 326.672 263.5C244.612 287.23 203.673 312.499 149.87 388.136Z" fill="#233440"/>
<path d="M285.172 154L306.172 138.5L317.172 150.5L298.672 263.5C290.172 264 283.172 264.5 274.172 265.5L285.172 154Z" fill="#EE7A31"/>
<path d="M306.172 138.5L317.172 150.5L298.672 263.5C297.172 263.5 291.672 264 289.672 264L306.172 138.5Z" fill="#FEE2A1"/>
<path fill-rule="evenodd" clip-rule="evenodd" d="M119.494 359.839C104.992 342.591 93.8556 322.421 87.0944 300.339C148.255 274.718 195.503 272.829 241.672 272C177.061 292.462 151.805 309.61 119.494 359.839Z" fill="#7DB540"/>
<path fill-rule="evenodd" clip-rule="evenodd" d="M140.815 281.073C178.142 272.216 210.884 271.5 242.672 271.5C198.892 284.747 173.34 296.949 151.465 319.674C144.997 308.435 141.227 295.149 140.815 281.073Z" fill="#F7B733"/>
<path fill-rule="evenodd" clip-rule="evenodd" d="M87.2094 300.713C86.7896 299.353 86.3864 297.986 86 296.612C118.616 276.548 186.333 266.575 242.172 272C177.138 272.227 117.426 289.041 87.2094 300.713Z" fill="#FDDFA1"/>
<path fill-rule="evenodd" clip-rule="evenodd" d="M120.586 361.125C120.239 360.72 119.893 360.313 119.549 359.905C152.013 305.508 176.296 286.468 243.172 271C180.172 293.431 160.403 315.937 132.948 347.195C129.033 351.652 124.962 356.287 120.586 361.125Z" fill="#FDDFA1"/>
<path d="M317.672 194.5L328.672 198L306.672 263.5L303.672 263.725L317.672 194.5Z" fill="#EE7B2D"/>
<path d="M329.172 183.5L355.172 192.5L322.672 263.5C316.228 263.314 312.616 263.329 306.172 263.5L329.172 183.5Z" fill="#F8B633"/>
<path d="M340.172 206.5L357.172 215L331.672 264C328.341 263.626 326.363 263.524 322.672 263.5L340.172 206.5Z" fill="#F8B633"/>
<path d="M232.672 146.5L259.672 125.5L282.172 146.5L271.672 266C253.672 268 247.672 270 237.172 273L232.672 146.5Z" fill="#1CB2B1"/>
<path d="M269.172 148.5L259.5 126L275.672 142L270.672 266C269.172 266.5 267.672 266.5 266.672 266.5L269.172 148.5Z" fill="#1D6564"/>
<path d="M148.172 161L158.172 147L169.172 159.5L184.672 271.5C178.089 272.035 174.36 272.369 167.672 273L148.172 161Z" fill="#1DAEB5"/>
<path d="M164.172 180.5L172.172 179.5L184.672 271.5C180.108 271.657 180.997 271.742 176.672 272L164.172 180.5Z" fill="white"/>
<path d="M172.672 184.5L181.172 183.5L191.672 271C188.46 271.146 186.715 271.259 183.672 271.5L172.672 184.5Z" fill="#1BB0B5"/>
<path d="M141.672 161L150.172 159.5L167.672 273C164.882 273.348 163.349 273.567 160.672 274L141.672 161Z" fill="#1DAEB5"/>
<path d="M155.172 175.5L160.172 175.5L175.672 272L171.172 272.5L155.172 175.5Z" fill="white"/>
<path d="M109.676 188.851L121.182 170.046L139.285 181.239L157.76 273.737C147.268 275.51 141.99 276.631 133.269 278.776L109.676 188.851Z" fill="#FED343"/>
<path d="M121.182 170.046L139.285 181.239L157.76 273.737C147.268 275.51 145 276 145 276L121.182 170.046Z" fill="#F49634"/>
<path d="M119 224L158.5 214L171.5 273C156.5 274 140 277.5 134 279L119 224Z" fill="#FBB836"/>
<path d="M132.5 220.5L158.5 214L171.5 273C157.5 274.5 152 275 146 276.5L132.5 220.5Z" fill="#ED7B32"/>
<path fill-rule="evenodd" clip-rule="evenodd" d="M223.172 97L194.672 105.5L195.076 114.388L181.672 117.5L198.672 270.5C199.936 270.491 201.087 270.484 202.171 270.479L202.172 270.5C202.776 270.49 203.366 270.48 203.943 270.472C207.43 270.46 210.416 270.469 214.672 270.5L214.67 270.43C219.29 270.484 223.768 270.655 229.672 271L223.172 97Z" fill="#F7B733"/>
<path d="M218 42.5L221.5 97.65L216.5 99.15L218 42.5Z" fill="#1B3B43"/>
<path d="M218 42L252 53.2353L218.782 55L218 42Z" fill="#1FB3B5"/>
<ellipse cx="362.5" cy="115" rx="24.5" ry="19" fill="#FECF41"/>
<path fill-rule="evenodd" clip-rule="evenodd" d="M387.881 137C391.099 133.046 393 128.166 393 122.886C393 109.694 381.136 99 366.5 99C351.864 99 340 109.694 340 122.886C340 128.166 341.901 133.046 345.119 137H387.881Z" fill="#FFFFC0"/>
<path fill-rule="evenodd" clip-rule="evenodd" d="M387.881 137C391.099 133.358 393 128.863 393 124C393 111.85 381.136 102 366.5 102C351.864 102 340 111.85 340 124C340 128.863 341.901 133.358 345.119 137H387.881Z" fill="#FECF41"/>
<path fill-rule="evenodd" clip-rule="evenodd" d="M350.766 137C352.788 134.679 354 131.721 354 128.5C354 121.044 347.508 115 339.5 115C331.492 115 325 121.044 325 128.5C325 131.721 326.212 134.679 328.234 137H350.766Z" fill="#FECF41"/>
<rect x="317" y="132" width="72" height="5" fill="#FECF41"/>
<ellipse cx="273.151" cy="66.3415" rx="11.9276" ry="8.34146" fill="#FDB82F"/>
<path fill-rule="evenodd" clip-rule="evenodd" d="M285.508 76C287.075 74.264 288 72.1216 288 69.8035C288 64.012 282.224 59.3171 275.099 59.3171C267.973 59.3171 262.197 64.012 262.197 69.8035C262.197 72.1216 263.123 74.264 264.69 76H285.508Z" fill="#FFFFC0"/>
<path fill-rule="evenodd" clip-rule="evenodd" d="M285.508 76C287.075 74.401 288 72.4278 288 70.2927C288 64.9584 282.224 60.6341 275.099 60.6341C267.973 60.6341 262.197 64.9584 262.197 70.2927C262.197 72.4278 263.123 74.401 264.69 76H285.508Z" fill="#FDB82F"/>
<path fill-rule="evenodd" clip-rule="evenodd" d="M267.439 76C268.423 74.9812 269.013 73.6826 269.013 72.2683C269.013 68.995 265.853 66.3415 261.954 66.3415C258.055 66.3415 254.895 68.995 254.895 72.2683C254.895 73.6826 255.485 74.9812 256.469 76H267.439Z" fill="#FDB82F"/>
<rect x="251" y="73.8049" width="35.0526" height="2.19512" fill="#FDB82F"/>
<ellipse cx="258.5" cy="70" rx="5.5" ry="5" fill="#FDB82F"/>
<path fill-rule="evenodd" clip-rule="evenodd" d="M138.06 111C139.294 108.941 140 106.55 140 104C140 96.268 133.508 90 125.5 90C117.492 90 111 96.268 111 104C111 106.55 111.706 108.941 112.94 111H138.06Z" fill="#F7B638"/>
<path fill-rule="evenodd" clip-rule="evenodd" d="M138.626 111C139.506 109.34 140 107.474 140 105.5C140 98.5964 133.956 93 126.5 93C119.044 93 113 98.5964 113 105.5C113 107.474 113.494 109.34 114.374 111H138.626Z" fill="#FDFBB5"/>
<path fill-rule="evenodd" clip-rule="evenodd" d="M139.464 111C139.813 109.889 140 108.715 140 107.5C140 100.596 133.956 95 126.5 95C119.044 95 113 100.596 113 107.5C113 108.715 113.187 109.889 113.536 111H139.464Z" fill="#F7B638"/>
<path fill-rule="evenodd" clip-rule="evenodd" d="M154.683 111C158.543 108.615 161 105.021 161 101C161 93.8203 153.165 88 143.5 88C133.835 88 126 93.8203 126 101C126 105.021 128.457 108.615 132.317 111H154.683Z" fill="#F7B638"/>
<path fill-rule="evenodd" clip-rule="evenodd" d="M173.78 111C173.924 110.354 174 109.685 174 109C174 103.477 169.075 99 163 99C156.925 99 152 103.477 152 109C152 109.685 152.076 110.354 152.22 111H173.78Z" fill="#F7B638"/>
</svg>
